<svg width="100%" viewBox="0 0 680 512" xmlns="http://www.w3.org/2000/svg">
<defs>
  <marker id="arr" viewBox="0 0 10 10" refX="8" refY="5" markerWidth="6" markerHeight="6" orient="auto-start-reverse">
    <path d="M2 1L8 5L2 9" fill="none" stroke="#888780" stroke-width="1.5" stroke-linecap="round" stroke-linejoin="round"/>
  </marker>
</defs>

<rect x="270" y="30" width="140" height="44" rx="8" fill="#E1F5EE" stroke="#0F6E56" stroke-width="0.5"/>
<text x="340" y="43" text-anchor="middle" font-family="sans-serif" font-size="13" font-weight="500" fill="#085041">Python producer</text>
<text x="340" y="62" text-anchor="middle" font-family="sans-serif" font-size="11" fill="#0F6E56">GA4 gaming events</text>

<line x1="340" y1="74" x2="340" y2="116" stroke="#888780" stroke-width="1.5" marker-end="url(#arr)"/>

<rect x="210" y="118" width="260" height="56" rx="8" fill="#EEEDFE" stroke="#534AB7" stroke-width="0.5"/>
<text x="340" y="138" text-anchor="middle" font-family="sans-serif" font-size="13" font-weight="500" fill="#3C3489">Kafka broker</text>
<text x="340" y="158" text-anchor="middle" font-family="sans-serif" font-size="11" fill="#534AB7">game_events topic · KRaft 4.0</text>

<line x1="280" y1="174" x2="101" y2="226" stroke="#888780" stroke-width="1" marker-end="url(#arr)"/>
<line x1="310" y1="174" x2="255" y2="226" stroke="#888780" stroke-width="1" marker-end="url(#arr)"/>
<line x1="370" y1="174" x2="409" y2="226" stroke="#888780" stroke-width="1" marker-end="url(#arr)"/>
<line x1="400" y1="174" x2="563" y2="226" stroke="#888780" stroke-width="1" marker-end="url(#arr)"/>

<text x="340" y="218" text-anchor="middle" font-family="sans-serif" font-size="11" fill="#854F0B">Apache Flink 2.0 — 4 SQL jobs</text>

<rect x="32" y="228" width="138" height="56" rx="8" fill="#FAEEDA" stroke="#854F0B" stroke-width="0.5"/>
<text x="101" y="248" text-anchor="middle" font-family="sans-serif" font-size="13" font-weight="500" fill="#633806">raw events</text>
<text x="101" y="268" text-anchor="middle" font-family="sans-serif" font-size="11" fill="#854F0B">validates, routes</text>

<rect x="186" y="228" width="138" height="56" rx="8" fill="#FAEEDA" stroke="#854F0B" stroke-width="0.5"/>
<text x="255" y="248" text-anchor="middle" font-family="sans-serif" font-size="13" font-weight="500" fill="#633806">session metrics</text>
<text x="255" y="268" text-anchor="middle" font-family="sans-serif" font-size="11" fill="#854F0B">1-min windows</text>

<rect x="340" y="228" width="138" height="56" rx="8" fill="#FAEEDA" stroke="#854F0B" stroke-width="0.5"/>
<text x="409" y="248" text-anchor="middle" font-family="sans-serif" font-size="13" font-weight="500" fill="#633806">player revenue</text>
<text x="409" y="268" text-anchor="middle" font-family="sans-serif" font-size="11" fill="#854F0B">purchase filter</text>

<rect x="494" y="228" width="138" height="56" rx="8" fill="#FAEEDA" stroke="#854F0B" stroke-width="0.5"/>
<text x="563" y="248" text-anchor="middle" font-family="sans-serif" font-size="13" font-weight="500" fill="#633806">dead letter</text>
<text x="563" y="268" text-anchor="middle" font-family="sans-serif" font-size="11" fill="#854F0B">malformed events</text>

<line x1="101" y1="284" x2="101" y2="336" stroke="#888780" stroke-width="1" marker-end="url(#arr)"/>
<line x1="255" y1="284" x2="255" y2="336" stroke="#888780" stroke-width="1" marker-end="url(#arr)"/>
<line x1="409" y1="284" x2="409" y2="336" stroke="#888780" stroke-width="1" marker-end="url(#arr)"/>
<line x1="563" y1="284" x2="563" y2="336" stroke="#888780" stroke-width="1" marker-end="url(#arr)"/>

<rect x="32" y="338" width="138" height="44" rx="8" fill="#EEEDFE" stroke="#534AB7" stroke-width="0.5"/>
<text x="101" y="357" text-anchor="middle" font-family="sans-serif" font-size="11" fill="#3C3489">processed_raw</text>
<text x="101" y="372" text-anchor="middle" font-family="sans-serif" font-size="11" fill="#3C3489">_events</text>

<rect x="186" y="338" width="138" height="44" rx="8" fill="#EEEDFE" stroke="#534AB7" stroke-width="0.5"/>
<text x="255" y="357" text-anchor="middle" font-family="sans-serif" font-size="11" fill="#3C3489">processed_session</text>
<text x="255" y="372" text-anchor="middle" font-family="sans-serif" font-size="11" fill="#3C3489">_metrics</text>

<rect x="340" y="338" width="138" height="44" rx="8" fill="#EEEDFE" stroke="#534AB7" stroke-width="0.5"/>
<text x="409" y="357" text-anchor="middle" font-family="sans-serif" font-size="11" fill="#3C3489">processed_player</text>
<text x="409" y="372" text-anchor="middle" font-family="sans-serif" font-size="11" fill="#3C3489">_revenue</text>

<rect x="494" y="338" width="138" height="44" rx="8" fill="#EEEDFE" stroke="#534AB7" stroke-width="0.5"/>
<text x="563" y="357" text-anchor="middle" font-family="sans-serif" font-size="11" fill="#3C3489">processed_dead</text>
<text x="563" y="372" text-anchor="middle" font-family="sans-serif" font-size="11" fill="#3C3489">_letter</text>

<line x1="101" y1="382" x2="101" y2="428" stroke="#888780" stroke-width="1" marker-end="url(#arr)"/>
<line x1="255" y1="382" x2="255" y2="428" stroke="#888780" stroke-width="1" marker-end="url(#arr)"/>
<line x1="409" y1="382" x2="409" y2="428" stroke="#888780" stroke-width="1" marker-end="url(#arr)"/>
<line x1="563" y1="382" x2="563" y2="428" stroke="#888780" stroke-width="1" marker-end="url(#arr)"/>

<rect x="60" y="430" width="560" height="56" rx="8" fill="#FAECE7" stroke="#993C1D" stroke-width="0.5"/>
<text x="340" y="450" text-anchor="middle" font-family="sans-serif" font-size="13" font-weight="500" fill="#712B13">ClickHouse 26.2</text>
<text x="340" y="470" text-anchor="middle" font-family="sans-serif" font-size="11" fill="#993C1D">raw_events · session_metrics · player_revenue · dead_letter_events</text>
</svg>
